<?xml version="1.0" encoding="utf-8"?>

<!-- Uploaded to: SVG Repo, www.svgrepo.com, Generator: SVG Repo Mixer Tools -->
<svg version="1.1" id="Icons" xmlns="http://www.w3.org/2000/svg" xmlns:xlink="http://www.w3.org/1999/xlink" 
	 viewBox="0 0 32 32" xml:space="preserve">
<style type="text/css">
	.st0{fill:none;stroke:#000000;stroke-width:2;stroke-linecap:round;stroke-linejoin:round;stroke-miterlimit:10;}
</style>
<path class="st0" d="M27,28h-8.1c-1.2,0-2.3-0.5-3.2-1.3L3,14l7-8v0c0,3.9,4.1,8,8,8h1v0c-0.1,4.5,1.6,7.8,6,9.2
	c0.3,0.1,0.5,0.2,0.8,0.2l0,0c1.2,0.3,2,1.6,1.7,2.8L27,28z"/>
<path class="st0" d="M1,16l13.7,13.7c0.8,0.8,2,1.3,3.2,1.3H27"/>
<circle class="st0" cx="10.5" cy="15.5" r="1.5"/>
<line class="st0" x1="15" y1="19" x2="19.5" y2="19"/>
<line class="st0" x1="17" y1="22" x2="22.5" y2="22"/>
<path class="st0" d="M28,1l-7.3,7.3C19,10,18.4,12.4,19,14.7l0,0"/>
<path class="st0" d="M10,7L10,7c1.9-0.6,3.6-2,4.6-3.7L16,1"/>
</svg>